# AST/ASF file generated using VICON BodyLanguage
# -----------------------------------------------
:version 1.10
:name VICON
:units
  mass 1.0
  length 0.45
  angle deg
:documentation
   .ast/.asf automatically generated from VICON data using
   VICON BodyBuilder and BodyLanguage model FoxedUp or BRILLIANT.MOD
:root
   order TX TY TZ RX RY RZ
   axis XYZ
   position 0 0 0  
   orientation 0 0 0 
:bonedata
  begin
     id 1 
     name lhipjoint
     direction 0.547975 -0.797114 0.253638 
     length 2.36201 
     axis 0 0 0  XYZ
  end
  begin
     id 2 
     name lfemur
     direction 0.34202 -0.939693 0  
     length 7.69075  
     axis 0 0 20  XYZ
    dof rx ry rz
    limits (-160.0 20.0)
           (-70.0 70.0)
           (-60.0 70.0)
  end
  begin
     id 3 
     name ltibia
     direction 0.34202 -0.939693 0   
     length 7.91399   
     axis 0 0 20   XYZ
    dof rx
    limits (-10.0 170.0)
  end
  begin
     id 4 
     name lfoot
     direction 0.0705293 -0.193778 0.978507   
     length 2.13618   
     axis -90 7.62852e-016 20   XYZ
    dof rx rz
    limits (-45.0 90.0)
           (-70.0 20.0)
  end
  begin
     id 5 
     name ltoes
     direction 1.53592e-011 -4.21925e-011 1   
     length 1.07518   
     axis -90 7.62852e-016 20   XYZ
    dof rx
    limits (-90.0 20.0)
  end
  begin
     id 6 
     name rhipjoint
     direction -0.57 -0.782963 0.249136   
     length 2.4047  
     axis 0 0 0  XYZ 
  end
  begin
     id 7 
     name rfemur
     direction -0.34202 -0.939693 0   
     length 7.51486   
     axis 0 0 -20   XYZ
    dof rx ry rz
    limits (-160.0 20.0)
           (-70.0 70.0)
           (-70.0 60.0)
  end
  begin
     id 8 
     name rtibia
     direction -0.34202 -0.939693 0   
     length 8.08317   
     axis 0 0 -20   XYZ
    dof rx
    limits (-10.0 170.0)
 end
 begin
     id 9 
     name rfoot
     direction -0.104954 -0.281256 0.953876   
     length 2.30343  
     axis -90 -7.62852e-016 -20   XYZ
    dof rx rz
    limits (-45.0 90.0)
           (-20.0 70.0)
  end
  begin
     id 10 
     name rtoes
     direction -1.53556e-011 -4.21922e-011 1   
     length 1.14803   
     axis -90 -7.62852e-016 -20   XYZ
    dof rx
    limits (-90.0 20.0)
  end
  begin
     id 11 
     name lowerback
     direction -0.0152855 0.99353 -0.11254   
     length 2.05311   
     axis 0 0 0   XYZ
    dof rx ry rz
    limits (-20.0 45.0)
           (-30.0 30.0)
           (-30.0 30.0)
  end
  begin
     id 12 
     name upperback
     direction -0.00157509 0.999443 -0.033332   
     length 2.06353   
     axis 0 0 0   XYZ
    dof rx ry rz
    limits (-20.0 45.0)
           (-30.0 30.0)
           (-30.0 30.0)
  end
  begin
     id 13 
     name thorax
     direction 0.00577788 0.999804 0.0189484   
     length 2.08472   
     axis 0 0 0   XYZ
    dof rx ry rz
    limits (-20.0 45.0)
           (-30.0 30.0)
           (-30.0 30.0)
  end
  begin
     id 14 
     name lowerneck
     direction -1.09301e-005 0.994719 0.10264   
     length 1.76249   
     axis 0 0 0   XYZ
    dof rx ry rz
    limits (-20.0 45.0)
           (-30.0 30.0)
           (-30.0 30.0)
  end
  begin
     id 15 
     name upperneck
     direction 0.0495018 0.988526 -0.142706   
     length 1.77897   
     axis 0 0 0   XYZ
    dof rx ry rz
    limits (-20.0 45.0)
           (-30.0 30.0)
           (-30.0 30.0)
  end
  begin
     id 16
     name head
     direction 0.0142736 0.998114 -0.0597101  
     length 1.78934  
     axis 0 0 0   XYZ
    dof rx ry rz
    limits (-20.0 45.0)
           (-30.0 30.0)
           (-30.0 30.0)
  end
  begin
     id 17 
     name lclavicle
     direction 0.918111 0.396107 -0.0130883  
     length 3.37276  
     axis 0 0 0   XYZ
    dof ry rz
    limits (-20.0 10.0)
           (0.0 20.0)
  end
  begin
     id 18 
     name lhumerus
     direction 1 -4.48975e-011 -3.26108e-027   
     length 5.34298   
     axis 180 -30 -90   XYZ
    dof rx ry rz
    limits (-60.0 90.0)
           (-90.0 90.0)
           (-90.0 90.0)
  end
  begin
     id 19
     name lradius
     direction 1 -4.48964e-011 -8.84413e-028   
     length 3.67262   
     axis 180 -30 -90   XYZ
    dof rx
    limits (-10.0 170.0)
  end
  begin
     id 20
     name lwrist
     direction 1 -4.48991e-011 -1.24264e-027   
     length 1.83631   
     axis -2.17013e-015 90 90   XYZ
    dof ry
    limits (-180.0 0.0)
 end
  begin
     id 21 
     name lhand
     direction 1 -4.48855e-011 -2.48528e-027   
     length 0.599298   
     axis 1.58582e-015 90 90   XYZ
    dof rx rz
    limits (-90.0 90.0)
           (-45.0 45.0)
  end
  begin
     id 22 
     name lfingers
     direction 1 -4.48811e-011 -4.97056e-027   
     length 0.48317   
     axis 3.17164e-015 90 90   XYZ
    dof rx
    limits (0.0 90.0)
  end
  begin
     id 23
     name lthumb
     direction 0.707107 -6.34882e-011 0.707107   
     length 0.693738   
     axis -90 45 2.85299e-015   XYZ
    dof rx rz
    limits (-45.0 45.0)
           (-45.0 45.0)
  end
  begin
     id 24 
     name rclavicle
     direction -0.920511 0.384752 -0.0680135   
     length 3.43787  
     axis 0 0 0   XYZ 
    dof ry rz
    limits (-10.0 20.0)
           (-20.0 0.0)
  end
  begin
     id 25 
     name rhumerus
     direction -0.999976 -0.00330524 0.00603274  
     length 5.5498   
     axis 180 30 90   XYZ
    dof rx ry rz
    limits (-90.0 60.0)
           (-90.0 90.0)
           (-90.0 90.0)
  end
  begin
     id 26 
     name rradius
     direction -1 -4.48967e-011 8.62438e-027   
     length 3.69401   
     axis 180 30 90   XYZ
    dof rx
    limits (-10.0 170.0)
  end
  begin
     id 27 
     name rwrist
     direction -1 -4.4897e-011 9.54866e-027   
     length 1.84701   
     axis -7.69462e-015 -90 -90   XYZ
    dof ry
    limits (-180.0 0.0)
  end
  begin
     id 28
     name rhand
     direction -1 -4.48982e-011 1.90973e-026   
     length 0.638113   
     axis -1.21857e-014 -90 -90   XYZ
    dof rx rz
    limits (-90.0 90.0)
           (-45.0 45.0)
  end
  begin
     id 29
     name rfingers
     direction -1 -4.48936e-011 3.81946e-026   
     length 0.514463   
     axis -2.43714e-014 -90 -90   XYZ
    dof rx
    limits (0.0 90.0)
  end
  begin
     id 30
     name rthumb
     direction -0.707107 -6.34942e-011 0.707107   
     length 0.738669   
     axis -90 -45 -2.85299e-015   XYZ
    dof rx rz
    limits (-45.0 45.0)
           (-45.0 45.0)
  end
:hierarchy
  begin
    root lhipjoint rhipjoint lowerback
    lhipjoint lfemur
    lfemur ltibia
    ltibia lfoot
    lfoot ltoes
    rhipjoint rfemur
    rfemur rtibia
    rtibia rfoot
    rfoot rtoes
    lowerback upperback
    upperback thorax
    thorax lowerneck lclavicle rclavicle
    lowerneck upperneck
    upperneck head
    lclavicle lhumerus
    lhumerus lradius
    lradius lwrist
    lwrist lhand lthumb
    lhand lfingers
    rclavicle rhumerus
    rhumerus rradius
    rradius rwrist
    rwrist rhand rthumb
    rhand rfingers
  end

#!OML:ASF F:\twosubjects\two\Thursday\Session 1\Rory.ASF
:FULLY-SPECIFIED
:DEGREES
66
root 17.605 18.3815 -7.38143 5.35468 -6.96252 0.116143
lowerback 1.06651 -0.496799 1.57666
upperback 2.41787 -0.662325 -0.273603
thorax 1.85904 -0.300381 -1.16749
lowerneck -3.31241 -8.50461 -7.35254
upperneck 24.3638 -12.8238 7.32282
head 9.12286 -6.05733 2.51871
rclavicle -1.51729e-014 1.99779e-014
rhumerus -34.8894 8.03578 -89.5993
rradius 72.4443
rwrist -31.5419
rhand -9.03273 15.2786
rfingers 7.12502
rthumb 16.9149 -14.0048
lclavicle -1.51729e-014 1.99779e-014
lhumerus -43.547 -18.4944 97.882
lradius 100.31
lwrist -30.1414
lhand -26.172 26.8357
lfingers 7.12502
lthumb 0.379579 56.8152
rfemur -1.74539 5.39534 22.212
rtibia 16.6534
rfoot -17.0329 -3.18466
rtoes -4.13634
lfemur -25.2612 -3.45501 -11.7881
ltibia 8.88163
lfoot -7.18212 11.9984
ltoes -6.60027
67
root 17.6216 18.3812 -7.25253 5.39754 -7.02157 0.116111
lowerback 1.23627 -0.463835 1.61858
upperback 2.37562 -0.613839 -0.372282
thorax 1.7205 -0.275949 -1.29013
lowerneck -3.01917 -8.65032 -7.47754
upperneck 23.1763 -12.9858 7.60426
head 8.6984 -6.14814 2.63503
rclavicle -1.16041e-014 -8.60986e-015
rhumerus -34.6489 7.33087 -88.9581
rradius 70.2289
rwrist -29.0357
rhand -8.86694 15.5496
rfingers 7.12502
rthumb 17.0745 -13.7201
lclavicle -1.16041e-014 -8.60986e-015
lhumerus -43.8083 -17.7608 97.7356
lradius 100.299
lwrist -30.3036
lhand -26.0832 26.9418
lfingers 7.12502
lthumb 0.46543 56.921
rfemur -1.00339 4.8454 22.1166
rtibia 16.0149
rfoot -16.6202 -2.79208
rtoes -4.48437
lfemur -24.9276 -3.51819 -11.8244
ltibia 7.08026
lfoot -6.60294 12.1063
ltoes -9.48761
68
root 17.6356 18.3684 -7.12053 5.38267 -7.08871 -0.00946798
lowerback 1.36722 -0.550104 1.62405
upperback 2.29614 -0.725891 -0.385037
thorax 1.56132 -0.333711 -1.30454
lowerneck -2.67073 -8.70601 -7.82707
upperneck 22.2821 -13.0467 7.95532
head 8.38321 -6.20263 2.82171
rclavicle 4.23101e-014 -1.97791e-014
rhumerus -34.326 6.7886 -88.5091
rradius 67.5312
rwrist -25.985
rhand -8.72443 15.8689
rfingers 7.12502
rthumb 17.2117 -13.3889
lclavicle 4.23101e-014 -1.97791e-014
lhumerus -44.1318 -16.8067 97.357
lradius 100.329
lwrist -30.1213
lhand -25.8421 27.1096
lfingers 7.12502
lthumb 0.698294 57.0882
rfemur -0.205446 4.35719 22.1796
rtibia 15.4338
rfoot -16.5406 -2.47114
rtoes -2.91307
lfemur -24.5365 -3.55179 -11.6994
ltibia 5.48364
lfoot -5.98719 12.2729
ltoes -12.7943
69
root 17.646 18.3612 -6.9823 5.24635 -7.19335 -0.0557093
lowerback 1.44326 -0.648256 1.45633
upperback 2.37602 -0.855983 -0.436971
thorax 1.59769 -0.400233 -1.26336
lowerneck -2.49537 -8.75479 -7.99462
upperneck 21.4321 -13.1014 8.27161
head 8.10239 -6.23662 2.95953
rclavicle -3.59055e-015 -6.16232e-015
rhumerus -33.8838 6.26102 -88.1249
rradius 64.7606
rwrist -22.6994
rhand -9.73468 15.6339
rfingers 7.12502
rthumb 16.2391 -13.706
lclavicle -3.59055e-015 -6.16232e-015
lhumerus -43.9879 -16.0623 96.7992
lradius 100.621
lwrist -29.3577
lhand -25.8676 27.7691
lfingers 7.12502
lthumb 0.67365 57.7477
rfemur 0.674944 4.35421 22.2116
rtibia 14.9371
rfoot -16.7953 -2.6039
rtoes -2.53735
lfemur -23.8486 -3.5726 -11.6647
ltibia 3.83206
lfoot -5.38847 12.4564
ltoes -13.16
70
root 17.656 18.3596 -6.84843 5.19844 -7.37206 -0.00530046
lowerback 1.61349 -0.644947 1.18355
upperback 2.328 -0.849573 -0.506996
thorax 1.45571 -0.402233 -1.17973
lowerneck -2.31516 -8.81841 -8.00463
upperneck 20.6406 -13.1719 8.48271
head 7.82684 -6.27418 3.03617
rclavicle -1.07841e-014 -6.65929e-015
rhumerus -33.7337 5.73162 -87.606
rradius 62.216
rwrist -19.8845
rhand -11.3981 15.772
rfingers 7.12502
rthumb 14.637 -13.6914
lclavicle -1.07841e-014 -6.65929e-015
lhumerus -44.2089 -15.1546 96.5331
lradius 101.07
lwrist -28.7966
lhand -25.8809 28.1682
lfingers 7.12502
lthumb 0.660751 58.1469
rfemur 1.39826 4.65752 22.1665
rtibia 14.5355
rfoot -16.8964 -3.11009
rtoes -4.80598
lfemur -22.4936 -3.48841 -11.6879
ltibia 0.871089
lfoot -4.18971 12.9519
ltoes -11.841
